HIERARCHY
ROOT Hips
{
	OFFSET 0.000000 0.000000 0.000000
	CHANNELS 6 Xposition Yposition Zposition Xrotation Yrotation Zrotation
	JOINT Thigh.L
	{
		OFFSET 0.055208 0.027001 -0.094106
		CHANNELS 3 Xrotation Yrotation Zrotation
		JOINT Shin.L
		{
			OFFSET 0.060821 0.006087 -0.412928
			CHANNELS 3 Xrotation Yrotation Zrotation
			JOINT Foot.L
			{
				OFFSET -0.042021 0.031688 -0.438342
				CHANNELS 3 Xrotation Yrotation Zrotation
				JOINT Toe.L
				{
					OFFSET 0.048069 -0.126416 -0.064489
					CHANNELS 3 Xrotation Yrotation Zrotation
					End Site
					{
						OFFSET 0.000000 0.050000 0.000000
					}
				}
			}
		}
	}
	JOINT Thigh.R
	{
		OFFSET -0.060351 0.021319 -0.106657
		CHANNELS 3 Xrotation Yrotation Zrotation
		JOINT Shin.R
		{
			OFFSET -0.049762 0.014116 -0.394355
			CHANNELS 3 Xrotation Yrotation Zrotation
			JOINT Foot.R
			{
				OFFSET 0.013986 0.019849 -0.447406
				CHANNELS 3 Xrotation Yrotation Zrotation
				JOINT Toe.R
				{
					OFFSET -0.039558 -0.127268 -0.064335
					CHANNELS 3 Xrotation Yrotation Zrotation
					End Site
					{
						OFFSET 0.000000 0.050000 0.000000
					}
				}
			}
		}
	}
	JOINT Spine
	{
		OFFSET -0.002705 0.027671 0.113168
		CHANNELS 3 Xrotation Yrotation Zrotation
		JOINT Spine.2
		{
			OFFSET 0.008951 0.006969 0.139025
			CHANNELS 3 Xrotation Yrotation Zrotation
			JOINT Chest
			{
				OFFSET -0.010743 -0.022940 0.055647
				CHANNELS 3 Xrotation Yrotation Zrotation
				JOINT Neck
				{
					OFFSET -0.012030 0.025961 0.169406
					CHANNELS 3 Xrotation Yrotation Zrotation
					JOINT Head
					{
						OFFSET 0.025223 -0.021337 0.170735
						CHANNELS 3 Xrotation Yrotation Zrotation
						End Site
						{
							OFFSET 0.000000 0.050000 0.000000
						}
					}
				}
				JOINT Clavicle.L
				{
					OFFSET 0.047051 0.004907 0.087114
					CHANNELS 3 Xrotation Yrotation Zrotation
					JOINT UpperArm.L
					{
						OFFSET 0.125992 0.013762 0.057763
						CHANNELS 3 Xrotation Yrotation Zrotation
						JOINT ForeArm.L
						{
							OFFSET 0.269561 0.042948 -0.075713
							CHANNELS 3 Xrotation Yrotation Zrotation
							JOINT Hand.L
							{
								OFFSET 0.273761 0.000867 0.022220
								CHANNELS 3 Xrotation Yrotation Zrotation
								JOINT Thumb1.L
								{
									OFFSET 0.154606 0.000379 0.009708
									CHANNELS 3 Xrotation Yrotation Zrotation
									JOINT Thumb2.L
									{
										OFFSET 0.029902 0.000095 0.002427
										CHANNELS 3 Xrotation Yrotation Zrotation
										End Site
										{
											OFFSET 0.024918 0.000079 0.002022
										}
									}
								}
								JOINT Index1.L
								{
									OFFSET 0.137606 0.000379 0.009708
									CHANNELS 3 Xrotation Yrotation Zrotation
									JOINT Index2.L
									{
										OFFSET 0.029902 0.000095 0.002427
										CHANNELS 3 Xrotation Yrotation Zrotation
										JOINT Index3.L
										{
											OFFSET 0.021928 0.000069 0.001780
											CHANNELS 3 Xrotation Yrotation Zrotation
											End Site
											{
												OFFSET 0.017941 0.000057 0.001456
											}
										}
									}
								}
								JOINT Middle1.L
								{
									OFFSET 0.119606 0.000379 0.009708
									CHANNELS 3 Xrotation Yrotation Zrotation
									JOINT Middle2.L
									{
										OFFSET 0.030898 0.000098 0.002508
										CHANNELS 3 Xrotation Yrotation Zrotation
										JOINT Middle3.L
										{
											OFFSET 0.021928 0.000069 0.001780
											CHANNELS 3 Xrotation Yrotation Zrotation
											End Site
											{
												OFFSET 0.017941 0.000057 0.001456
											}
										}
									}
								}
								JOINT Ring1.L
								{
									OFFSET 0.101606 0.000379 0.009708
									CHANNELS 3 Xrotation Yrotation Zrotation
									JOINT Ring2.L
									{
										OFFSET 0.028905 0.000092 0.002346
										CHANNELS 3 Xrotation Yrotation Zrotation
										JOINT Ring3.L
										{
											OFFSET 0.019934 0.000063 0.001618
											CHANNELS 3 Xrotation Yrotation Zrotation
											End Site
											{
												OFFSET 0.016944 0.000054 0.001375
											}
										}
									}
								}
								JOINT Pinky1.L
								{
									OFFSET 0.085606 0.000379 0.009708
									CHANNELS 3 Xrotation Yrotation Zrotation
									JOINT Pinky2.L
									{
										OFFSET 0.023921 0.000076 0.001942
										CHANNELS 3 Xrotation Yrotation Zrotation
										JOINT Pinky3.L
										{
											OFFSET 0.016944 0.000054 0.001375
											CHANNELS 3 Xrotation Yrotation Zrotation
											End Site
											{
												OFFSET 0.013954 0.000044 0.001133
											}
										}
									}
								}
							}
						}
					}
				}
				JOINT Clavicle.R
				{
					OFFSET -0.047864 0.011053 0.086184
					CHANNELS 3 Xrotation Yrotation Zrotation
					JOINT UpperArm.R
					{
						OFFSET -0.109333 0.010005 0.054069
						CHANNELS 3 Xrotation Yrotation Zrotation
						JOINT ForeArm.R
						{
							OFFSET -0.287710 0.027801 -0.040156
							CHANNELS 3 Xrotation Yrotation Zrotation
							JOINT Hand.R
							{
								OFFSET -0.270070 0.014417 -0.005460
								CHANNELS 3 Xrotation Yrotation Zrotation
								JOINT Thumb1.R
								{
									OFFSET -0.154805 0.006396 -0.002422
									CHANNELS 3 Xrotation Yrotation Zrotation
									JOINT Thumb2.R
									{
										OFFSET -0.029951 0.001599 -0.000605
										CHANNELS 3 Xrotation Yrotation Zrotation
										End Site
										{
											OFFSET -0.024959 0.001332 -0.000505
										}
									}
								}
								JOINT Index1.R
								{
									OFFSET -0.137805 0.006396 -0.002422
									CHANNELS 3 Xrotation Yrotation Zrotation
									JOINT Index2.R
									{
										OFFSET -0.029951 0.001599 -0.000605
										CHANNELS 3 Xrotation Yrotation Zrotation
										JOINT Index3.R
										{
											OFFSET -0.021964 0.001173 -0.000444
											CHANNELS 3 Xrotation Yrotation Zrotation
											End Site
											{
												OFFSET -0.017971 0.000959 -0.000363
											}
										}
									}
								}
								JOINT Middle1.R
								{
									OFFSET -0.119805 0.006396 -0.002422
									CHANNELS 3 Xrotation Yrotation Zrotation
									JOINT Middle2.R
									{
										OFFSET -0.030950 0.001652 -0.000626
										CHANNELS 3 Xrotation Yrotation Zrotation
										JOINT Middle3.R
										{
											OFFSET -0.021964 0.001173 -0.000444
											CHANNELS 3 Xrotation Yrotation Zrotation
											End Site
											{
												OFFSET -0.017971 0.000959 -0.000363
											}
										}
									}
								}
								JOINT Ring1.R
								{
									OFFSET -0.101805 0.006396 -0.002422
									CHANNELS 3 Xrotation Yrotation Zrotation
									JOINT Ring2.R
									{
										OFFSET -0.028953 0.001546 -0.000585
										CHANNELS 3 Xrotation Yrotation Zrotation
										JOINT Ring3.R
										{
											OFFSET -0.019967 0.001066 -0.000404
											CHANNELS 3 Xrotation Yrotation Zrotation
											End Site
											{
												OFFSET -0.016972 0.000906 -0.000343
											}
										}
									}
								}
								JOINT Pinky1.R
								{
									OFFSET -0.085805 0.006396 -0.002422
									CHANNELS 3 Xrotation Yrotation Zrotation
									JOINT Pinky2.R
									{
										OFFSET -0.023961 0.001279 -0.000484
										CHANNELS 3 Xrotation Yrotation Zrotation
										JOINT Pinky3.R
										{
											OFFSET -0.016972 0.000906 -0.000343
											CHANNELS 3 Xrotation Yrotation Zrotation
											End Site
											{
												OFFSET -0.013977 0.000746 -0.000283
											}
										}
									}
								}
							}
						}
					}
				}
			}
		}
	}
}
MOTION
Frames: 5
Frame Time: 0.04166667
0.006985538 -0.060930721 1.434317 -7.762892 -0.607239 1.902810 6.714634 -2.823415 3.998334 1.529656 1.829797 -6.368211 -6.735974 -1.828574 9.118293 -0.159393 -1.449887 -1.119818 2.628662 4.056372 -4.923329 10.087540 0.196310 2.493788 -7.461692 -2.926308 -6.577134 -0.336628 -1.865590 0.757306 8.539563 0.859684 2.192211 -3.237384 0.490370 -1.773340 4.825678 -1.219639 -0.203263 3.433654 2.276280 4.422899 1.018085 -1.247581 4.617252 -0.066136 20.807828 -3.712109 21.725012 47.839833 -23.862493 16.583626 -3.138997 -24.522110 -2.134211 -3.414261 -6.497346 0.000000 0.000000 0.000000 0.000000 0.000000 0.000000 0.000000 0.000000 0.000000 0.000000 0.000000 0.000000 0.000000 0.000000 0.000000 0.000000 0.000000 0.000000 0.000000 0.000000 0.000000 0.000000 0.000000 0.000000 0.000000 0.000000 0.000000 0.000000 0.000000 0.000000 0.000000 0.000000 0.000000 0.000000 0.000000 0.000000 0.000000 0.000000 0.000000 0.000000 0.000000 0.000000 0.717180 -19.702475 8.598257 26.417287 -47.052993 26.662097 11.391931 5.334759 29.443896 2.286137 -1.687439 3.586795 0.000000 0.000000 0.000000 0.000000 0.000000 0.000000 0.000000 0.000000 0.000000 0.000000 0.000000 0.000000 0.000000 0.000000 0.000000 0.000000 0.000000 0.000000 0.000000 0.000000 0.000000 0.000000 0.000000 0.000000 0.000000 0.000000 0.000000 0.000000 0.000000 0.000000 0.000000 0.000000 0.000000 0.000000 0.000000 0.000000 0.000000 0.000000 0.000000 0.000000 0.000000 0.000000
0.007084354 -0.062136297 1.434540 -7.722907 -0.619485 1.861697 6.635657 -2.747444 3.926281 1.470520 1.746532 -6.257819 -6.583356 -1.814147 9.133281 -0.124694 -1.428823 -1.113155 2.506985 4.035041 -4.833727 10.076963 0.267865 2.520185 -7.310042 -2.955054 -6.624764 -0.319760 -1.877906 0.761818 8.657183 0.866134 2.173548 -3.262217 0.473813 -1.791084 4.818360 -1.216055 -0.211513 3.351876 2.273088 4.465861 0.940943 -1.181022 4.661233 -0.167608 20.817005 -3.680992 21.715566 47.841128 -23.906879 16.602781 -3.128420 -24.458127 -2.026663 -3.319744 -6.479344 0.000000 0.000000 0.000000 0.000000 0.000000 0.000000 0.000000 0.000000 0.000000 0.000000 0.000000 0.000000 0.000000 0.000000 0.000000 0.000000 0.000000 0.000000 0.000000 0.000000 0.000000 0.000000 0.000000 0.000000 0.000000 0.000000 0.000000 0.000000 0.000000 0.000000 0.000000 0.000000 0.000000 0.000000 0.000000 0.000000 0.000000 0.000000 0.000000 0.000000 0.000000 0.000000 0.636328 -19.747931 8.557533 26.429220 -46.992058 26.778752 11.327326 5.382911 29.420450 2.394463 -1.679580 3.582001 0.000000 0.000000 0.000000 0.000000 0.000000 0.000000 0.000000 0.000000 0.000000 0.000000 0.000000 0.000000 0.000000 0.000000 0.000000 0.000000 0.000000 0.000000 0.000000 0.000000 0.000000 0.000000 0.000000 0.000000 0.000000 0.000000 0.000000 0.000000 0.000000 0.000000 0.000000 0.000000 0.000000 0.000000 0.000000 0.000000 0.000000 0.000000 0.000000 0.000000 0.000000 0.000000
0.006720732 -0.063313708 1.434751 -7.690663 -0.672284 1.852488 6.465889 -2.697876 3.817780 1.586759 1.703829 -6.192929 -6.445741 -1.775756 9.163063 -0.100981 -1.427525 -1.109984 2.296046 4.046716 -4.721596 10.258262 0.302627 2.589956 -7.218973 -2.938055 -6.724966 -0.290885 -1.886142 0.765209 8.717476 0.846062 2.165548 -3.228788 0.470812 -1.808699 4.791604 -1.212237 -0.216697 3.233525 2.272558 4.439393 0.951111 -1.136211 4.666132 -0.270074 20.824956 -3.668007 21.709527 47.801956 -23.940326 16.452131 -3.048824 -24.416791 -2.050255 -3.283611 -6.443490 0.000000 0.000000 0.000000 0.000000 0.000000 0.000000 0.000000 0.000000 0.000000 0.000000 0.000000 0.000000 0.000000 0.000000 0.000000 0.000000 0.000000 0.000000 0.000000 0.000000 0.000000 0.000000 0.000000 0.000000 0.000000 0.000000 0.000000 0.000000 0.000000 0.000000 0.000000 0.000000 0.000000 0.000000 0.000000 0.000000 0.000000 0.000000 0.000000 0.000000 0.000000 0.000000 0.535583 -19.778051 8.524508 26.440308 -47.009480 26.848990 11.110337 5.380421 29.474387 2.418267 -1.619099 3.485098 0.000000 0.000000 0.000000 0.000000 0.000000 0.000000 0.000000 0.000000 0.000000 0.000000 0.000000 0.000000 0.000000 0.000000 0.000000 0.000000 0.000000 0.000000 0.000000 0.000000 0.000000 0.000000 0.000000 0.000000 0.000000 0.000000 0.000000 0.000000 0.000000 0.000000 0.000000 0.000000 0.000000 0.000000 0.000000 0.000000 0.000000 0.000000 0.000000 0.000000 0.000000 0.000000
0.006634680 -0.063849986 1.434826 -7.662481 -0.686624 1.852749 6.124801 -2.693901 3.702157 1.922875 1.703481 -6.096611 -6.385914 -1.795231 9.180709 -0.086607 -1.414514 -1.106076 1.942879 4.073400 -4.624643 10.596155 0.282974 2.561103 -7.130534 -2.949143 -6.771381 -0.287126 -1.888938 0.766616 8.883730 0.832530 2.148498 -3.288834 0.470742 -1.814113 4.807059 -1.224863 -0.216834 3.091916 2.255837 4.457757 0.915585 -1.131109 4.673263 -0.386148 20.823312 -3.701920 21.709814 47.779553 -24.039131 16.347723 -3.025809 -24.416848 -2.014041 -3.267066 -6.411385 0.000000 0.000000 0.000000 0.000000 0.000000 0.000000 0.000000 0.000000 0.000000 0.000000 0.000000 0.000000 0.000000 0.000000 0.000000 0.000000 0.000000 0.000000 0.000000 0.000000 0.000000 0.000000 0.000000 0.000000 0.000000 0.000000 0.000000 0.000000 0.000000 0.000000 0.000000 0.000000 0.000000 0.000000 0.000000 0.000000 0.000000 0.000000 0.000000 0.000000 0.000000 0.000000 0.429753 -19.802919 8.529339 26.353006 -46.981534 26.878213 11.013891 5.442088 29.521637 2.489430 -1.595708 3.437107 0.000000 0.000000 0.000000 0.000000 0.000000 0.000000 0.000000 0.000000 0.000000 0.000000 0.000000 0.000000 0.000000 0.000000 0.000000 0.000000 0.000000 0.000000 0.000000 0.000000 0.000000 0.000000 0.000000 0.000000 0.000000 0.000000 0.000000 0.000000 0.000000 0.000000 0.000000 0.000000 0.000000 0.000000 0.000000 0.000000 0.000000 0.000000 0.000000 0.000000 0.000000 0.000000
0.006863917 -0.064247912 1.434819 -7.640289 -0.678475 1.829569 5.736943 -2.703602 3.576393 2.327527 1.740564 -5.975266 -6.357382 -1.864787 9.212612 -0.070519 -1.390478 -1.094930 1.505128 4.122687 -4.539542 11.050518 0.239168 2.500935 -7.047496 -2.985922 -6.782893 -0.291846 -1.877552 0.770687 9.129116 0.833598 2.129440 -3.373851 0.478469 -1.811645 4.844743 -1.233862 -0.219462 2.934971 2.232963 4.493565 0.822990 -1.136647 4.684450 -0.482697 20.800363 -3.793184 21.695527 47.781651 -24.159263 16.242724 -3.041420 -24.447803 -2.007783 -3.293494 -6.389269 0.000000 0.000000 0.000000 0.000000 0.000000 0.000000 0.000000 0.000000 0.000000 0.000000 0.000000 0.000000 0.000000 0.000000 0.000000 0.000000 0.000000 0.000000 0.000000 0.000000 0.000000 0.000000 0.000000 0.000000 0.000000 0.000000 0.000000 0.000000 0.000000 0.000000 0.000000 0.000000 0.000000 0.000000 0.000000 0.000000 0.000000 0.000000 0.000000 0.000000 0.000000 0.000000 0.344117 -19.782689 8.604138 26.261183 -46.946882 26.927503 10.939821 5.544217 29.581823 2.521274 -1.580768 3.417474 0.000000 0.000000 0.000000 0.000000 0.000000 0.000000 0.000000 0.000000 0.000000 0.000000 0.000000 0.000000 0.000000 0.000000 0.000000 0.000000 0.000000 0.000000 0.000000 0.000000 0.000000 0.000000 0.000000 0.000000 0.000000 0.000000 0.000000 0.000000 0.000000 0.000000 0.000000 0.000000 0.000000 0.000000 0.000000 0.000000 0.000000 0.000000 0.000000 0.000000 0.000000 0.000000
